<svg xmlns="http://www.w3.org/2000/svg" width="800" height="800" viewBox="0 0 17 17">
  <defs>
    <style>
      .cls-1 {
        fill: #fff;
        fill-rule: evenodd;
      }
    </style>
  </defs>
  <path class="cls-1" d="M1074,100.54a0.559,0.559,0,0,0-.17-0.428,0.572,0.572,0,0,0-.43-0.172,0.554,0.554,0,0,0-.42.172l-1.4,1.4-4.01-4.009,4.01-4.01,1.4,1.4a0.549,0.549,0,0,0,.42.172,0.569,0.569,0,0,0,.43-0.172,0.558,0.558,0,0,0,.17-0.427V89.595a0.558,0.558,0,0,0-.17-0.428A0.572,0.572,0,0,0,1073.4,89h-4.86a0.584,0.584,0,0,0-.43.172,0.556,0.556,0,0,0-.17.427,0.6,0.6,0,0,0,.17.428l1.4,1.4-4.01,4.01-4.01-4.01,1.4-1.4a0.623,0.623,0,0,0,0-.855,0.591,0.591,0,0,0-.43-0.172h-4.87a0.549,0.549,0,0,0-.42.172,0.558,0.558,0,0,0-.17.427V94.46a0.557,0.557,0,0,0,.17.427,0.547,0.547,0,0,0,.42.172,0.569,0.569,0,0,0,.43-0.173l1.4-1.4,4.01,4.01-4.01,4.01-1.4-1.4a0.559,0.559,0,0,0-.43-0.173,0.552,0.552,0,0,0-.42.173,0.6,0.6,0,0,0-.18.428l0.01,4.864a0.584,0.584,0,0,0,.59.6h4.87a0.586,0.586,0,0,0,.43-0.172,0.623,0.623,0,0,0,0-.855l-1.4-1.4,4.01-4.009,4.01,4.01-1.4,1.4a0.6,0.6,0,0,0-.17.428,0.556,0.556,0,0,0,.17.427,0.59,0.59,0,0,0,.43.172h4.86a0.585,0.585,0,0,0,.6-0.6V100.54Z" transform="translate(-1057 -89)"/>
</svg>
