<?xml version="1.0" encoding="utf-8"?>
<!-- Generator: Adobe Illustrator 23.0.0, SVG Export Plug-In . SVG Version: 6.00 Build 0)  -->
<svg version="1.1" id="Layer_1" xmlns="http://www.w3.org/2000/svg" xmlns:xlink="http://www.w3.org/1999/xlink" x="0px" y="0px"
	 viewBox="0 0 566.32 731.81" style="enable-background:new 0 0 566.32 731.81;" xml:space="preserve">
<style type="text/css">
	.st0{fill:#34302D;}
</style>
<g>
	<path class="st0" d="M283.1,247.7c67.85-0.06,122.79-55.12,122.72-122.96C405.76,56.9,350.71,1.96,282.86,2.02
		c-67.84,0.07-122.79,55.12-122.72,122.96C160.35,192.76,215.32,247.61,283.1,247.7L283.1,247.7z M283.1,49.58
		c41.63,0,75.39,33.75,75.39,75.4c0,41.63-33.75,75.39-75.39,75.39c-41.64,0-75.4-33.76-75.4-75.39
		C207.71,83.35,241.48,49.59,283.1,49.58L283.1,49.58z M283.1,49.58"/>
	<path class="st0" d="M118.04,512.41h330.11c13.13-0.03,23.74-10.66,23.78-23.79c0-53.75-19.49-103.21-55.17-139.61
		c-35.28-35.76-83.43-55.89-133.66-55.89c-50.24,0-98.37,20.13-133.67,55.89c-35.67,36.39-55.18,85.86-55.18,139.61
		C94.3,501.75,104.92,512.38,118.04,512.41L118.04,512.41z M183.45,382.32c26.32-26.63,62.2-41.62,99.65-41.62
		c37.43,0,73.33,14.99,99.65,41.62c21.82,22.52,35.83,51.44,39.96,82.53H143.5C147.56,433.74,161.58,404.79,183.45,382.32
		L183.45,382.32z M183.45,382.32"/>
	<path class="st0" d="M540.44,682.23H25.77c-13.13,0-23.79,10.64-23.79,23.78c0,13.14,10.66,23.78,23.79,23.78h514.91
		c13.14-0.07,23.73-10.77,23.66-23.9C564.27,692.75,553.57,682.16,540.44,682.23L540.44,682.23z M540.44,682.23"/>
	<path class="st0" d="M144.68,577.58c-13.13,0-23.78,10.64-23.78,23.78c0,13.14,10.65,23.79,23.78,23.79h277.08
		c13.14,0,23.78-10.65,23.78-23.79c0-13.14-10.64-23.78-23.78-23.78H144.68z M144.68,577.58"/>
</g>
</svg>
