<?xml version="1.0" encoding="utf-8"?>
<!-- Generator: Adobe Illustrator 23.0.0, SVG Export Plug-In . SVG Version: 6.00 Build 0)  -->
<svg version="1.1" id="Layer_1" xmlns="http://www.w3.org/2000/svg" xmlns:xlink="http://www.w3.org/1999/xlink" x="0px" y="0px"
	 viewBox="0 0 574.83 106.47" style="enable-background:new 0 0 574.83 106.47;" xml:space="preserve">
<style type="text/css">
	.st0{fill:#164074;}
	.st1{fill:#8BC53F;}
	.st2{fill:#1F3D75;}
	.st3{fill:#A9D470;}
</style>
<path class="st0" d="M178.08,35.9c-0.01,0-0.02,0.01-0.03,0.01c0,0.01-0.01,0.02-0.01,0.03L178.08,35.9z"/>
<path class="st0" d="M177.12,36.85c-0.01,0-0.02,0.01-0.03,0.01c0,0.01-0.01,0.02-0.01,0.03L177.12,36.85z"/>
<path class="st0" d="M219.98,35c0-0.01-0.01-0.02-0.02-0.04c-0.01,0-0.01-0.01-0.02-0.01L219.98,35z"/>
<path class="st0" d="M221,35.88c0-0.01-0.01-0.01-0.01-0.02c-0.01,0-0.01-0.01-0.02-0.01L221,35.88z"/>
<path class="st0" d="M217.13,33.05c0-0.01-0.01-0.01-0.01-0.01c-0.01,0-0.01-0.01-0.02-0.01L217.13,33.05z"/>
<path class="st0" d="M222.88,37.84C222.88,37.84,222.88,37.84,222.88,37.84c-0.02-0.02-0.03-0.04-0.05-0.05L222.88,37.84z"/>
<path class="st0" d="M221.96,36.83c0-0.01-0.01-0.01-0.01-0.02c-0.01,0-0.01-0.01-0.02-0.01L221.96,36.83z"/>
<path class="st0" d="M224.84,40.64c-0.01-0.01-0.01-0.02-0.02-0.03c0,0,0,0,0,0L224.84,40.64z"/>
<path class="st0" d="M179.1,35.02c-0.01,0-0.01,0-0.02,0c0,0.02-0.01,0.02-0.02,0.04L179.1,35.02z"/>
<path class="st0" d="M173.26,42.55c0,0-0.01,0.01-0.01,0.01c-0.01,0.02-0.02,0.04-0.03,0.05L173.26,42.55z"/>
<path class="st0" d="M174.25,40.66c-0.02,0.01-0.03,0.02-0.05,0.03c0,0.02-0.01,0.03-0.02,0.04L174.25,40.66z"/>
<path class="st0" d="M176.22,37.85c-0.02,0.01-0.03,0.02-0.05,0.02c0,0.01-0.01,0.02-0.01,0.04L176.22,37.85z"/>
<g>
	<path class="st1" d="M55.58,0.43c1.8,1.69,3.28,3.66,4.84,5.55c6.08,7.38,11.65,15.12,16.41,23.43c3.93,6.87,7.12,14.04,8.96,21.76
		c0.14,0.6,0.26,1.22,0.32,1.83c0.13,1.24-0.27,2.3-1.17,3.17c-1.16,1.14-2.51,2.03-3.83,2.97c-7.1,5.04-14.42,9.73-22.05,13.93
		c-0.66,0.37-1.32,0.77-2.12,1.02c0-1.7,0-3.34,0-4.97c0-2.24,0.01-4.48-0.03-6.72c-0.02-1.07,0.39-1.78,1.32-2.3
		c3.51-1.97,7.01-3.96,10.5-5.96c0.79-0.45,1.57-0.67,2.48-0.47c0.73,0.16,1.49,0.16,2.22-0.01c1.8-0.42,3.03-2.11,2.87-3.93
		c-0.17-1.9-1.86-3.55-3.74-3.64c-2.06-0.1-3.67,1.2-3.97,3.44c-0.16,1.21-0.71,1.87-1.75,2.44c-3.06,1.66-6.06,3.42-9.08,5.14
		c-0.23,0.13-0.47,0.26-0.71,0.39c-0.2-0.25-0.12-0.48-0.12-0.68c-0.01-6.17,0-12.34,0-18.51c0-1.96-0.01-3.93,0-5.89
		c0.01-1.32,0.35-2.52,1.41-3.39c1.2-0.99,1.52-2.24,1.08-3.68c-0.47-1.52-1.51-2.51-3.08-2.82c-1.71-0.34-3.39,0.51-4.19,2.04
		c-0.8,1.52-0.56,3.41,0.77,4.58c1,0.87,1.33,1.83,1.3,3.13c-0.08,4.33-0.05,8.66-0.06,12.99c0,0.8-0.01,0.8-0.69,0.43
		c-2.29-1.25-4.56-2.54-6.87-3.75c-0.75-0.39-1.09-0.89-1.19-1.72c-0.23-1.88-1.79-3.34-3.57-3.43c-1.92-0.1-3.64,1.14-4.1,3.01
		c-0.36,1.45,0.08,2.71,1.13,3.74c1,0.98,2.22,1.34,3.57,0.89c1.24-0.42,2.33-0.2,3.41,0.45c2.46,1.46,4.93,2.89,7.41,4.32
		c0.64,0.37,0.96,0.85,0.95,1.62c-0.02,5.67-0.02,11.35,0,17.02c0,0.62-0.08,0.74-0.67,0.4c-3.84-2.2-7.69-4.37-11.55-6.54
		c-0.51-0.29-0.68-0.72-0.78-1.27c-0.42-2.3-2.11-3.7-4.24-3.58c-2.12,0.12-3.88,2.23-3.61,4.33c0.3,2.29,2.38,3.95,4.52,3.28
		c1.84-0.58,3.22-0.1,4.74,0.82c3.36,2.03,6.77,3.98,10.25,5.8c0.9,0.47,1.32,1.16,1.33,2.14c0,0.22-0.02,0.45,0.01,0.67
		c0.18,1.28-0.42,2.04-1.55,2.58c-2.71,1.3-5.44,2.56-8.19,3.76c-3.26,1.41-6.59,2.66-9.9,3.93c-1.7,0.65-2.97,0.29-4.23-0.97
		c-3.58-3.57-6.09-7.77-7.57-12.58c-1.39-4.49-2.12-9.09-2.01-13.81c0.12-4.66,1.27-9.09,3.08-13.35
		c3.78-8.91,8.86-17.07,14.82-24.66C43.23,13,48.01,7.4,53.03,2.01c0.52-0.56,1.1-1.06,1.65-1.59C54.99,0.43,55.28,0.43,55.58,0.43z
		"/>
	<path class="st2" d="M108.41,36.52c0.17,0.49-0.07,0.82-0.24,1.17c-1.48,2.93-3.59,5.42-5.7,7.89
		c-5.65,6.61-12.25,12.19-19.08,17.53c-8.13,6.36-17.04,11.48-26.06,16.44c-8.74,4.81-17.78,8.91-27.27,12.02
		c-4.66,1.52-9.38,2.77-14.29,3.14c-2.53,0.19-5.06,0.29-7.57-0.22C4,93.63,1.85,90.45,2.7,86.25c0.67-3.28,2.27-6.12,4.35-8.71
		c0.08-0.1,0.15-0.27,0.44-0.24c-0.22,0.61-0.43,1.19-0.66,1.77c-0.73,1.86-1.12,3.77-0.77,5.76c0.46,2.65,2.16,4.16,4.67,4.85
		c3.2,0.88,6.45,0.91,9.69,0.37c10.36-1.71,20.17-5.19,29.6-9.71c14.78-7.07,28.56-15.74,41.3-26.06
		c6.15-4.98,11.75-10.49,16.43-16.91C107.95,37.08,108.18,36.81,108.41,36.52z"/>
	<path class="st1" d="M86.05,64.63c-1.21,7.19-4.04,13.57-9.37,18.71c-5.03,4.86-11.14,7.51-17.94,8.74
		c-0.32,0.06-0.65,0.07-0.95,0.17c-0.7,0.24-0.87,0-0.86-0.71c0.03-2.54,0.04-5.07-0.02-7.61c-0.02-1.07,0.44-1.71,1.31-2.21
		c3.6-2.06,7.17-4.17,10.77-6.22c5.69-3.24,10.89-7.21,16.25-10.94c0.2-0.14,0.41-0.27,0.62-0.41
		C86.24,64.19,86.09,64.43,86.05,64.63z"/>
	<path class="st2" d="M101.98,35.31c0.37-1.17,0.7-2.15,0.99-3.14c0.31-1.08,0.47-2.19,0.32-3.31c-0.41-3.02-2.53-4.98-5.91-5.6
		c-3.99-0.73-7.91-0.29-11.83,0.52c-2.19,0.45-4.36,0.94-6.47,1.7c-1.29,0.46-2.08,0.08-2.66-1.16c-0.02-0.05-0.05-0.09-0.06-0.13
		c-0.52-1.39-1.06-1.92,1.21-2.32c2.01-0.35,3.93-1.18,5.94-1.67c4.21-1.01,8.44-1.88,12.78-1.92c1.77-0.02,3.51,0.25,5.21,0.77
		c3.96,1.21,5.7,4.22,4.66,8.22c-0.74,2.84-2.11,5.39-3.84,7.76C102.27,35.09,102.2,35.12,101.98,35.31z"/>
	<path class="st1" d="M41.4,89.91c1.43-0.69,2.85-1.37,4.27-2.05c2.35-1.13,4.7-2.26,7.06-3.38c1.13-0.53,1.49-0.29,1.49,0.95
		c-0.01,4.98-0.02,9.95-0.04,14.93c-0.01,1.67-0.05,3.33-0.07,5c0,0.25,0.01,0.52-0.31,0.6c-0.3,0.08-0.31-0.18-0.36-0.36
		c-1.06-3.29-2.56-6.41-3.78-9.64c-0.26-0.7-0.49-1.41-0.79-2.09c-0.55-1.25-1.51-2.01-2.86-2.26c-1.42-0.26-2.8-0.66-4.11-1.3
		C41.74,90.23,41.53,90.2,41.4,89.91z"/>
	<path class="st2" d="M0.65,77.16c1.38-2.94,3.16-5.62,5.14-8.18c3.56-4.61,7.78-8.56,12.24-12.28c0.06-0.05,0.13-0.08,0.19-0.11
		c0.54,1.1,0.38,1.92-0.59,2.77c-2.26,1.98-4.5,3.99-6.66,6.09c-3.62,3.53-6.95,7.31-9.88,11.44C1,77.03,0.88,77.16,0.78,77.3
		C0.65,77.33,0.58,77.31,0.65,77.16z"/>
	<path class="st3" d="M86.05,64.63c-0.04-0.17,0.02-0.38-0.18-0.48c0.07-0.11,0.21-0.25,0.27-0.14
		C86.26,64.21,86.18,64.44,86.05,64.63z"/>
</g>
<g>
	<path class="st0" d="M227.71,26.81l0.03-0.07c-0.01,0.01-0.01,0.03-0.02,0.04C227.72,26.79,227.72,26.8,227.71,26.81z"/>
	<path class="st0" d="M226.7,13.56c-0.01-0.02-0.02-0.05-0.03-0.07c-0.01-0.01-0.01-0.01-0.02-0.02L226.7,13.56z"/>
	<path class="st0" d="M225.61,33.42c0.02-0.01,0.03-0.02,0.04-0.03c0-0.02,0.01-0.04,0.02-0.06L225.61,33.42z"/>
	<path class="st0" d="M220.84,40.06c0.01,0,0.01,0,0.02,0c0.01-0.01,0.02-0.03,0.03-0.04L220.84,40.06z"/>
	<path class="st0" d="M221.78,39.1c0.02-0.01,0.03-0.02,0.04-0.03c0-0.01,0-0.01,0-0.02L221.78,39.1z"/>
	<path class="st0" d="M217.06,42.95C217.06,42.95,217.06,42.95,217.06,42.95c0.01-0.01,0.01-0.02,0.02-0.03L217.06,42.95z"/>
	<path class="st0" d="M175.12,36.28c0,0.01,0.01,0.02,0.02,0.04c0.01,0.01,0.02,0.02,0.04,0.03L175.12,36.28z"/>
	<path class="st0" d="M517.67,61.57c0.63-3.6,0.38-6.12,0.42-8.63c0.04-2.56,0.01-5.11,0.01-7.67s-0.04-5.11,0.01-7.67
		c0.05-2.51-0.26-5.06,0.34-7.69c2.56-0.45,4.89-0.43,7.47-0.01c0.14,1.12,0.39,2.19,0.39,3.26c0.03,12.14,0.02,24.29,0.01,36.43
		c0,1.11,0.02,2.26-0.24,3.33c-0.78,3.25-3.89,4.5-6.71,2.66c-1.19-0.77-2.2-1.84-3.21-2.85c-8.12-8.15-16.21-16.33-24.34-24.48
		c-1.2-1.2-2.23-2.66-3.85-3.31c-1.38,0.87-0.96,2.09-0.97,3.11c-0.04,7.51-0.01,15.02-0.03,22.53c0,1.57-0.12,3.13-0.18,4.78
		c-2.72,0.99-5.15,0.9-7.8,0.12c-0.09-1.38-0.24-2.62-0.25-3.87c-0.02-11.67-0.02-23.33,0-35c0-1.27-0.04-2.59,0.24-3.81
		c0.67-2.94,3.86-4.27,6.39-2.63c1.32,0.86,2.45,2.04,3.58,3.16c8.18,8.09,16.34,16.2,24.52,24.3
		C514.6,58.75,515.78,59.79,517.67,61.57z"/>
	<path class="st0" d="M474.5,75.75c-3.46,0.43-6.43,0.38-9.75,0.06c-2.22-3.55-4.48-7.18-6.8-10.9c-7.02-0.73-14.02,0.18-21.26-0.56
		c0.69-2.74,2.28-4.53,3.37-6.65c4.2-0.74,8.37,0.19,12.42-0.63c-0.89-3.4-4.73-10.15-7.99-14.23c-1.61,0.1-1.92,1.54-2.54,2.58
		c-5.16,8.65-10.27,17.34-15.41,26c-0.89,1.5-1.85,2.95-2.75,4.39c-3.09,0.26-5.91,0.47-8.56-0.03c-0.69-1.15-0.03-1.81,0.34-2.43
		c8.04-13.45,16.12-26.89,24.2-40.31c0.49-0.82,1.05-1.62,1.71-2.3c1.64-1.7,4.36-1.71,6-0.02c0.66,0.68,1.21,1.49,1.7,2.3
		c8.17,13.56,16.33,27.13,24.49,40.7C473.91,74.12,474.03,74.6,474.5,75.75z"/>
	<path class="st0" d="M324.66,75.14c-0.45,0.35-0.68,0.71-0.93,0.71c-2.7,0.04-5.4,0.02-8.28,0.02c-2.86-3.21-4.43-7.33-7.07-10.83
		c-3.45-0.81-6.97-0.27-10.46-0.38c-3.48-0.11-6.97,0.06-10.86-0.11c0.71-2.92,2.21-4.91,3.79-7.03c3.94-0.08,7.89-0.16,11.96-0.25
		c0-0.81,0.15-1.34-0.02-1.71c-2.12-4.46-6.14-10.66-8.23-12.76c-1.62,0.71-2.07,2.37-2.86,3.7c-4.84,8.1-9.62,16.23-14.42,24.35
		c-0.49,0.83-1.05,1.62-1.45,2.48c-0.91,1.97-2.32,2.91-4.56,2.73c-1.89-0.15-3.8-0.07-5.54-0.08c-0.9-1.56,0.1-2.39,0.64-3.29
		c7.8-13.04,15.62-26.06,23.44-39.08c0.41-0.68,0.82-1.38,1.3-2.01c2.26-2.92,5.33-2.9,7.56,0.06c0.58,0.76,1.04,1.61,1.54,2.43
		c7.6,12.6,15.19,25.2,22.77,37.81C323.62,72.95,324.12,74.09,324.66,75.14z"/>
	<path class="st0" d="M541.78,66.78c5.86,0.74,26.84,0.06,32.22,0.72c0.66,2.69,0.49,5.18,0.16,7.97c-1.08,0.19-2.13,0.54-3.19,0.54
		c-11.35,0.04-22.7,0.04-34.05,0c-1.07,0-2.14-0.3-3.15-0.45c-0.64-4.76-0.56-40.93,0.12-45.03c0.78-0.15,1.68-0.47,2.58-0.47
		c11.51-0.04,23.02-0.04,34.53-0.02c0.92,0,1.84,0.28,2.89,0.46c0.82,2.61,0.42,5.06,0.32,7.32c-1.83,1.2-3.47,0.8-5.03,0.81
		c-7.35,0.04-14.71,0.01-22.06,0.03c-1.56,0-3.12,0.14-4.87,0.22c-0.93,4.84-0.36,9.45-0.46,14.03
		C541.71,57.37,541.78,61.83,541.78,66.78z"/>
	<path class="st0" d="M254.37,75.94c-2.23,0.04-7.99-0.15-8.63-0.25c-0.27-1.89,0.16-22.22,0.14-30.68c0-1.9-0.12-3.79-0.18-5.88
		c-1.37-0.18-2.43-0.43-3.5-0.45c-3.19-0.06-6.39,0.01-9.58-0.05c-1.08-0.02-2.16-0.25-3.23-0.39c-0.82-2.55-0.65-4.89-0.18-7.48
		c0.87-0.23,1.75-0.67,2.64-0.68c12.3-0.05,24.6-0.04,36.9-0.02c0.77,0,1.55,0.26,2.35,0.4c1.22,2.54,0.58,5.01,0.5,7.67
		c-5.62,1.17-11.06-0.02-16.32,0.8c-0.94,1.71-0.64,3.34-0.65,4.89c-0.03,8.94,0,17.89-0.02,26.83
		C254.6,72.21,254.47,73.77,254.37,75.94z"/>
	<path class="st0" d="M150.89,75.5c-2.38,1-4.85,0.45-7.64,0.33c-0.14-1.72-0.34-3.1-0.34-4.48c-0.03-9.11,0.02-30.41-0.02-32.26
		c-5.76-0.66-11.01-0.21-16.62-0.71c-0.81-2.76-0.78-5.2-0.06-7.83c1.02-0.18,1.93-0.45,2.85-0.5c9.58-0.48,35.16-0.15,38.95,0.51
		c1.09,2.35,0.72,4.83,0.29,7.54c-0.93,0.19-1.83,0.5-2.73,0.52c-3.19,0.07-6.39,0.01-9.59,0.05c-1.25,0.02-3.33,0.17-4.43,0.25
		c0,1.9,0.01,22.64-0.03,31.27C151.52,71.91,151.85,73.7,150.89,75.5z"/>
	<path class="st0" d="M329.62,30.86c3.67-1.1,3.67-1.1,7.67-0.09c0.85,1.53,0.6,3.31,0.61,5.03c0.03,8.46,0,16.92,0.02,25.38
		c0,1.74,0.11,3.47,0.19,5.53c1.41,0.17,17.86,0.46,24.88,0.48c1.56,0.01,3.12,0.13,4.74,0.2c0.84,2.79,0.62,5.28,0.27,8.01
		c-0.76,0.21-1.49,0.58-2.21,0.58c-11.33,0.04-22.67,0.04-34,0.02c-0.61,0-1.21-0.24-2.03-0.41c-0.17-0.8-0.47-1.55-0.48-2.29
		c-0.03-13.41-0.03-26.82-0.01-40.22C329.27,32.3,329.51,31.54,329.62,30.86z"/>
	<path class="st0" d="M373.74,30.57c2.57-0.78,4.91-0.7,7.23-0.14c1.31,1.59,0.87,3.43,0.88,5.13c0.05,8.63,0,17.26,0.04,25.89
		c0.01,1.73-0.34,3.53,0.72,5.31c3.03,0.84,6.22,0.31,9.38,0.4c3.35,0.09,16.41,0.09,19.85,0.13c0.73,2.88,0.6,5.5,0.16,8.09
		c-3.69,0.88-13.41,1.06-34.54,0.66c-1.23-0.02-2.46-0.25-3.85-0.4c-0.13-1.19-0.3-2.11-0.32-3.04
		C372.86,56.99,373.09,35.25,373.74,30.57z"/>
	<path class="st0" d="M572.27,49.34c0.55,2.08,0.49,4.2,0.03,6.36c-0.64,0.19-1.08,0.44-1.52,0.44c-7.16,0.03-14.32,0.04-21.48,0.03
		c-0.61,0-1.21-0.19-2.02-0.32c-0.55-2.26-0.48-4.38-0.04-6.47C551.23,48.64,567.8,48.61,572.27,49.34z"/>
	<path class="st0" d="M224.56,42.16c-3.04-6.76-8.51-10.74-15.85-11.7c-6.51-0.85-13.1-0.89-19.61-0.01
		c-7.9,1.06-13.52,5.47-16.49,12.92c-2.27,5.7-2.36,11.56-0.33,17.35c2.94,8.42,8.79,13.55,17.68,14.88
		c2.83,0.42,12.76,0.52,14.83,0.39c7.81-0.47,14.27-3.55,18.38-10.41C227.66,58.08,228.14,50.12,224.56,42.16z M210.03,66.04
		c-1.42,0.63-3.05,0.94-4.61,1.06c-2.22,0.18-11.16,0.14-13.39,0.02c-4.65-0.26-8.18-2.48-10.46-6.52
		c-2.52-4.45-2.64-9.17-0.76-13.83c1.95-4.86,5.76-7.62,10.98-7.96c4.29-0.28,8.61-0.25,12.91-0.09c8.15,0.3,13.67,6.18,13.45,14.32
		C217.99,58.88,215.63,63.56,210.03,66.04z"/>
</g>
</svg>
